<?xml version="1.0" encoding="utf-8"?>
<svg version="1.1" id="Layer_1" xmlns="http://www.w3.org/2000/svg" xmlns:xlink="http://www.w3.org/1999/xlink" x="0px" y="0px" width="48" height="48" viewBox="0 0 48 48" style="enable-background:new 0 0 48 48;" xml:space="preserve">
<style type="text/css">
	.st0{fill-rule:evenodd;clip-rule:evenodd;fill:url(#SVGID_1_);fill-opacity:0.95;}
	.st1{fill-rule:evenodd;clip-rule:evenodd;fill:#5E5E5E;}
	.st2{fill:#5E5E5E;}
</style>
<radialGradient id="SVGID_1_" cx="-293.7883" cy="421.7102" r="1" gradientTransform="matrix(-25.3956 -25.6182 -61.6269 61.0914 18567.084 -33259.8594)" gradientUnits="userSpaceOnUse">
	<stop  offset="0.298" style="stop-color:#B4B4B4"/>
	<stop  offset="1" style="stop-color:#E3E3E3"/>
</radialGradient>
<path class="st0" d="M47,16.5c0,8.4-6.7,15.2-15,15.5v0H11v0l-0.1,0C5.4,32,1,27.6,1,22.2c0-5.4,4.4-9.8,9.9-9.8
	c1.9,0,3.7,0.5,5.2,1.4C17.3,6.6,23.7,1,31.4,1C40,1,47,7.9,47,16.5z"/>
<path class="st1" d="M31,41.9v4.8h1.5v-4.8l4.5,2.4l0.7-1.2l-4.5-2.4l4.5-2.4L37,37.1l-4.5,2.4v-4.8H31v4.8l-4.5-2.4l-0.7,1.2
	l4.5,2.4l-4.5,2.4l0.7,1.2C26.4,44.3,31,41.9,31,41.9z"/>
<path class="st2" d="M31,41.9h0.2v-0.3l-0.2,0.1C30.9,41.7,31,41.9,31,41.9z M31,46.7h-0.1v0.2H31V46.7z M32.4,46.7v0.2h0.2v-0.2
	H32.4z M32.4,41.9l0.1-0.1l-0.2-0.1v0.3H32.4L32.4,41.9z M37,44.3l-0.1,0.1l0.1,0.1l0.1-0.1L37,44.3L37,44.3z M37.7,43.1l0.1,0.1
	l0.1-0.1L37.8,43L37.7,43.1z M33.2,40.7l-0.1-0.1l-0.2,0.1l0.2,0.1L33.2,40.7z M37.7,38.3l0.1,0.1l0.1-0.1l-0.1-0.1L37.7,38.3
	L37.7,38.3z M37,37.1l0.1-0.1L37,36.9L36.9,37L37,37.1z M32.4,39.5h-0.1v0.3l0.2-0.1L32.4,39.5L32.4,39.5z M32.4,34.7h0.2v-0.1h-0.2
	V34.7z M31,34.7v-0.1h-0.2v0.1H31z M31,39.5l-0.1,0.1l0.2,0.1v-0.3H31L31,39.5z M26.4,37.1l0.1-0.1l-0.1-0.1L26.3,37L26.4,37.1
	L26.4,37.1z M25.7,38.3l-0.1-0.1l-0.1,0.1l0.1,0.1L25.7,38.3z M30.2,40.7l0.1,0.1l0.2-0.1l-0.2-0.1L30.2,40.7z M25.7,43.1L25.6,43
	L25.5,43l0.1,0.1L25.7,43.1L25.7,43.1z M26.4,44.3l-0.1,0.1l0.1,0.1l0.1-0.1L26.4,44.3z M30.8,41.9v4.8h0.3v-4.8H30.8z M31,46.8h1.5
	v-0.3H31L31,46.8L31,46.8z M32.6,46.7v-4.8h-0.3v4.8H32.6z M32.4,42l4.5,2.4l0.1-0.3l-4.5-2.4L32.4,42z M37.1,44.4l0.7-1.2L37.6,43
	l-0.7,1.2L37.1,44.4L37.1,44.4z M37.8,43l-4.5-2.4l-0.1,0.3l4.5,2.4C37.6,43.2,37.8,43,37.8,43z M37.6,38.2l-4.5,2.4l0.1,0.3
	l4.5-2.4L37.6,38.2z M36.8,37.2l0.7,1.2l0.3-0.2L37.1,37L36.8,37.2z M32.5,39.6l4.5-2.4L36.9,37l-4.5,2.4L32.5,39.6z M32.6,39.5
	v-4.8h-0.3v4.8H32.6z M32.4,34.5H31v0.3h1.5L32.4,34.5L32.4,34.5z M30.8,34.7v4.8h0.3v-4.8H30.8z M31,39.4L26.5,37l-0.1,0.3l4.5,2.4
	C30.9,39.6,31,39.4,31,39.4z M26.3,37l-0.7,1.2l0.3,0.2l0.7-1.2L26.3,37L26.3,37z M25.6,38.4l4.5,2.4l0.1-0.3l-4.5-2.4
	C25.8,38.2,25.6,38.4,25.6,38.4z M25.8,43.2l4.5-2.4l-0.1-0.3L25.6,43C25.6,43,25.8,43.2,25.8,43.2z M26.6,44.2L25.8,43l-0.3,0.2
	l0.7,1.2L26.6,44.2z M30.9,41.7l-4.5,2.4l0.1,0.3L31,42L30.9,41.7L30.9,41.7z"/>
<path class="st1" d="M23.3,29.2V34h1.5v-4.8l4.5,2.4l0.7-1.2L25.5,28l4.5-2.4l-0.7-1.2l-4.5,2.4V22h-1.5v4.8l-4.5-2.4L18,25.6
	l4.5,2.4L18,30.4l0.7,1.2C18.7,31.6,23.3,29.2,23.3,29.2z"/>
<path class="st2" d="M23.3,29.2h0.1v-0.3l-0.2,0.1L23.3,29.2z M23.3,34h-0.1v0.2h0.1V34z M24.7,34v0.2h0.1V34H24.7z M24.7,29.2
	l0.1-0.1l-0.2-0.1v0.3H24.7L24.7,29.2z M29.3,31.6l-0.1,0.1l0.1,0.1l0.1-0.1L29.3,31.6L29.3,31.6z M30,30.4l0.1,0.1l0.1-0.1
	l-0.1-0.1L30,30.4z M25.5,28l-0.1-0.1L25.2,28l0.2,0.1L25.5,28z M30,25.6l0.1,0.1l0.1-0.1l-0.1-0.1L30,25.6L30,25.6z M29.3,24.4
	l0.1-0.1l-0.1-0.1l-0.1,0.1C29.2,24.3,29.3,24.4,29.3,24.4z M24.7,26.8h-0.1v0.3l0.2-0.1L24.7,26.8L24.7,26.8z M24.7,22h0.1v-0.1
	h-0.1V22z M23.3,22v-0.1h-0.1V22H23.3z M23.3,26.8l-0.1,0.1l0.2,0.1v-0.3H23.3L23.3,26.8z M18.7,24.4l0.1-0.1l-0.1-0.1l-0.1,0.1
	L18.7,24.4L18.7,24.4z M18,25.6l-0.1-0.1l-0.1,0.1l0.1,0.1L18,25.6z M22.5,28l0.1,0.1l0.2-0.1l-0.2-0.1L22.5,28z M18,30.4l-0.1-0.1
	l-0.1,0.1l0.1,0.1L18,30.4L18,30.4z M18.7,31.6l-0.1,0.1l0.1,0.1l0.1-0.1C18.8,31.7,18.7,31.6,18.7,31.6z M23.1,29.2V34h0.3v-4.8
	C23.4,29.2,23.1,29.2,23.1,29.2z M23.3,34.1h1.5v-0.3h-1.5L23.3,34.1L23.3,34.1z M24.9,34v-4.8h-0.3V34C24.6,34,24.9,34,24.9,34z
	 M24.7,29.3l4.5,2.4l0.1-0.3l-4.5-2.4L24.7,29.3z M29.4,31.7l0.7-1.2l-0.3-0.2l-0.7,1.2L29.4,31.7L29.4,31.7z M30.1,30.3l-4.5-2.4
	l-0.1,0.3l4.5,2.4L30.1,30.3z M29.9,25.5l-4.5,2.4l0.1,0.3l4.5-2.4L29.9,25.5z M29.1,24.5l0.7,1.2l0.3-0.2l-0.7-1.2L29.1,24.5z
	 M24.8,26.9l4.5-2.4l-0.1-0.3l-4.5,2.4C24.7,26.7,24.8,26.9,24.8,26.9z M24.9,26.8V22h-0.3v4.8C24.6,26.8,24.9,26.8,24.9,26.8z
	 M24.7,21.8h-1.5v0.3h1.5L24.7,21.8L24.7,21.8z M23.1,22v4.8h0.3V22C23.4,22,23.1,22,23.1,22z M23.3,26.7l-4.5-2.4l-0.1,0.3l4.5,2.4
	L23.3,26.7z M18.6,24.3l-0.7,1.2l0.3,0.2l0.7-1.2L18.6,24.3L18.6,24.3z M17.9,25.7l4.5,2.4l0.1-0.3l-4.5-2.4L17.9,25.7z M18.1,30.5
	l4.5-2.4l-0.1-0.3l-4.5,2.4L18.1,30.5z M18.9,31.5l-0.7-1.2l-0.3,0.2l0.7,1.2L18.9,31.5z M23.2,29.1l-4.5,2.4l0.1,0.3l4.5-2.4
	L23.2,29.1L23.2,29.1z"/>
<path class="st1" d="M39.3,29.2V34h1.5v-4.8l4.5,2.4l0.7-1.2L41.5,28l4.5-2.4l-0.7-1.2l-4.5,2.4V22h-1.5v4.8l-4.5-2.4L34,25.6
	l4.5,2.4L34,30.4l0.7,1.2C34.7,31.6,39.3,29.2,39.3,29.2z"/>
<path class="st2" d="M39.3,29.2h0.2v-0.3l-0.2,0.1L39.3,29.2z M39.3,34h-0.2v0.2h0.2V34z M40.7,34v0.2h0.2V34H40.7z M40.7,29.2
	l0.1-0.1l-0.2-0.1v0.3H40.7z M45.3,31.6l-0.1,0.1l0.1,0.1l0.1-0.1C45.4,31.7,45.3,31.6,45.3,31.6z M46,30.4l0.1,0.1l0.1-0.1
	l-0.1-0.1L46,30.4z M41.5,28l-0.1-0.1L41.2,28l0.2,0.1L41.5,28z M46,25.6l0.1,0.1l0.1-0.1l-0.1-0.1L46,25.6L46,25.6z M45.3,24.4
	l0.1-0.1l-0.1-0.1l-0.1,0.1C45.2,24.3,45.3,24.4,45.3,24.4z M40.7,26.8h-0.2v0.3l0.2-0.1L40.7,26.8z M40.7,22h0.2v-0.1h-0.2V22z
	 M39.3,22v-0.1h-0.2V22H39.3z M39.3,26.8l-0.1,0.1l0.2,0.1v-0.3H39.3z M34.7,24.4l0.1-0.1l-0.1-0.1l-0.1,0.1
	C34.6,24.3,34.7,24.4,34.7,24.4z M34,25.6l-0.1-0.1l-0.1,0.1l0.1,0.1L34,25.6z M38.5,28l0.1,0.1l0.2-0.1l-0.2-0.1L38.5,28z M34,30.4
	l-0.1-0.1l-0.1,0.1l0.1,0.1L34,30.4L34,30.4z M34.7,31.6l-0.1,0.1l0.1,0.1l0.1-0.1C34.8,31.7,34.7,31.6,34.7,31.6z M39.1,29.2V34
	h0.3v-4.8C39.4,29.2,39.1,29.2,39.1,29.2z M39.3,34.1h1.5v-0.3h-1.5V34.1z M40.9,34v-4.8h-0.3V34C40.6,34,40.9,34,40.9,34z
	 M40.7,29.3l4.5,2.4l0.1-0.3l-4.5-2.4L40.7,29.3z M45.4,31.7l0.7-1.2l-0.3-0.2l-0.7,1.2L45.4,31.7L45.4,31.7z M46.1,30.3l-4.5-2.4
	l-0.1,0.3l4.5,2.4L46.1,30.3z M45.9,25.5l-4.5,2.4l0.1,0.3l4.5-2.4C46.1,25.7,45.9,25.5,45.9,25.5z M45.1,24.5l0.7,1.2l0.3-0.2
	l-0.7-1.2L45.1,24.5z M40.8,26.9l4.5-2.4l-0.1-0.3l-4.5,2.4C40.7,26.7,40.8,26.9,40.8,26.9z M40.9,26.8V22h-0.3v4.8
	C40.6,26.8,40.9,26.8,40.9,26.8z M40.7,21.8h-1.5v0.3h1.5V21.8z M39.1,22v4.8h0.3V22C39.4,22,39.1,22,39.1,22z M39.3,26.7l-4.5-2.4
	l-0.1,0.3l4.5,2.4L39.3,26.7z M34.6,24.3l-0.7,1.2l0.3,0.2l0.7-1.2L34.6,24.3L34.6,24.3z M33.9,25.7l4.5,2.4l0.1-0.3l-4.5-2.4
	C34.1,25.5,33.9,25.7,33.9,25.7z M34.1,30.5l4.5-2.4l-0.1-0.3l-4.5,2.4L34.1,30.5z M34.9,31.5l-0.7-1.2l-0.3,0.2l0.7,1.2L34.9,31.5z
	 M39.2,29.1l-4.5,2.4l0.1,0.3l4.5-2.4L39.2,29.1L39.2,29.1z"/>
</svg>
